<svg width="60" height="60" xmlns="http://www.w3.org/2000/svg"><g fill-rule="nonzero" fill="none"><path fill="#D8C3A5" d="M0 0l27.6 27.6h3.6l2.88 6.48L60 60V0z"/><path d="M30.803 26.667c-3.637-2.224-2.182-4.694-2.182-4.694.727-1.73.485-2.718.485-2.718-.243-1.73.727-.494.727-.494.97 1.235.485 2.717.485 2.717-.727 2.471 1.212 3.706 2.182 3.953" fill="#EAE7DD"/><path d="M27.5 27.533s.948.484 1.185 0l3.317-3.383c.71-.483 1.421-.725 1.895-.725-1.895-2.658-3.554-5.8.474-9.908 1.185-1.209 2.37-1.692 3.79-1.692.238-.483.712-1.692 2.844-2.658 0 0 1.185.725 1.658 3.866.948.484 1.896 1.209 2.844 2.175.947.967 1.658 1.934 2.132 2.9 3.317.725 4.028 1.692 4.028 1.692-.948 1.933-2.133 2.658-2.607 2.658 0 1.45-.473 2.659-1.658 3.867-3.79 3.867-7.108 2.417-9.714.483 0 .725-.237 1.692-1.185 2.659l-2.843 2.658c-.237.242.237 1.208.237 1.208l-6.397-5.8z" fill="#EAE7DD"/></g></svg>
